<svg id="Layer_1" enable-background="new 0 0 96 96" viewBox="0 0 96 96" xmlns="http://www.w3.org/2000/svg"><path d="m48 5.5c-23.4346 0-42.5 19.0654-42.5 42.5s19.0654 42.5 42.5 42.5 42.5-19.0654 42.5-42.5-19.0654-42.5-42.5-42.5zm0 80c-20.6777 0-37.5-16.8223-37.5-37.5s16.8223-37.5 37.5-37.5 37.5 16.8223 37.5 37.5-16.8223 37.5-37.5 37.5z"/><path d="m67.3936 34.3198-22.0577 22.0572-11.3173-11.3165c-.9756-.9766-2.5596-.9766-3.5352 0-.9766.9761-.9766 2.5591 0 3.5352l13.085 13.0845c.4878.4883 1.1279.7324 1.7676.7324s1.2798-.2441 1.7676-.7324l23.8251-23.8252c.9766-.9761.9766-2.5591 0-3.5352-.9756-.9765-2.5596-.9765-3.5351 0z"/></svg>